# AST/ASF file generated using VICON BodyLanguage
# -----------------------------------------------
:version 1.10
:name VICON
:units
  mass 1.0
  length 0.45
  angle deg
:documentation
   .ast/.asf automatically generated from VICON data using
   VICON BodyBuilder and BodyLanguage model FoxedUp or BRILLIANT.MOD
:root
   order TX TY TZ RX RY RZ
   axis XYZ
   position 0 0 0  
   orientation 0 -0 0 
:bonedata
  begin
     id 1 
     name lhipjoint
     direction 0.515797 -0.759363 0.396637 
     length 2.47888 
     axis 0 -0 0  XYZ
  end
  begin
     id 2 
     name lfemur
     direction 0.34202 -0.939693 0  
     length 6.81885  
     axis 0 -0 20  XYZ
    dof rx ry rz
    limits (-160.0 20.0)
           (-70.0 70.0)
           (-60.0 70.0)
  end
  begin
     id 3 
     name ltibia
     direction 0.342037 -0.939687 0   
     length 7.89258   
     axis 0 -0 20   XYZ
    dof rx
    limits (-10.0 170.0)
  end
  begin
     id 4 
     name lfoot
     direction 0.173497 -0.476678 0.861787   
     length 2.51543   
     axis -90 -1.13533e-015 20   XYZ
    dof rx rz
    limits (-45.0 90.0)
           (-70.0 20.0)
  end
  begin
     id 5 
     name ltoes
     direction 1.53564e-011 -4.21897e-011 1   
     length 1.21388   
     axis -90 -1.13533e-015 20   XYZ
    dof rx
    limits (-90.0 20.0)
  end
  begin
     id 6 
     name rhipjoint
     direction -0.489454 -0.772941 0.403729   
     length 2.43534  
     axis 0 -0 0  XYZ 
  end
  begin
     id 7 
     name rfemur
     direction -0.34202 -0.939693 0   
     length 7.10357   
     axis 0 -0 -20   XYZ
    dof rx ry rz
    limits (-160.0 20.0)
           (-70.0 70.0)
           (-70.0 60.0)
  end
  begin
     id 8 
     name rtibia
     direction -0.34202 -0.939693 0   
     length 9.16127   
     axis 0 -0 -20   XYZ
    dof rx
    limits (-10.0 170.0)
 end
 begin
     id 9 
     name rfoot
     direction -0.270974 -0.748671 0.605033   
     length 1.74894  
     axis -90 1.13533e-015 -20   XYZ
    dof rx rz
    limits (-45.0 90.0)
           (-20.0 70.0)
  end
  begin
     id 10 
     name rtoes
     direction -1.53557e-011 -4.21759e-011 1   
     length 0.787585   
     axis -90 1.13533e-015 -20   XYZ
    dof rx
    limits (-90.0 20.0)
  end
  begin
     id 11 
     name lowerback
     direction -0.0140249 0.999561 0.0260968   
     length 2.16963   
     axis 0 -0 0   XYZ
    dof rx ry rz
    limits (-20.0 45.0)
           (-30.0 30.0)
           (-30.0 30.0)
  end
  begin
     id 12 
     name upperback
     direction 0.00860018 0.999959 -0.002711   
     length 2.1726   
     axis 0 -0 0   XYZ
    dof rx ry rz
    limits (-20.0 45.0)
           (-30.0 30.0)
           (-30.0 30.0)
  end
  begin
     id 13 
     name thorax
     direction 0.015211 0.999782 -0.0143191   
     length 2.17061   
     axis 0 -0 0   XYZ
    dof rx ry rz
    limits (-20.0 45.0)
           (-30.0 30.0)
           (-30.0 30.0)
  end
  begin
     id 14 
     name lowerneck
     direction -0.0140143 0.999447 0.030145   
     length 2.26749   
     axis 0 -0 0   XYZ
    dof rx ry rz
    limits (-20.0 45.0)
           (-30.0 30.0)
           (-30.0 30.0)
  end
  begin
     id 15 
     name upperneck
     direction 0.118062 0.961438 -0.248392   
     length 2.22728   
     axis 0 -0 0   XYZ
    dof rx ry rz
    limits (-20.0 45.0)
           (-30.0 30.0)
           (-30.0 30.0)
  end
  begin
     id 16
     name head
     direction 0.0431885 0.9954 -0.085514  
     length 2.28786  
     axis 0 -0 0   XYZ
    dof rx ry rz
    limits (-20.0 45.0)
           (-30.0 30.0)
           (-30.0 30.0)
  end
  begin
     id 17 
     name lclavicle
     direction 0.912126 0.409548 0.0172323  
     length 4.31571  
     axis 0 -0 0   XYZ
    dof ry rz
    limits (-20.0 10.0)
           (0.0 20.0)
  end
  begin
     id 18 
     name lhumerus
     direction 1 -4.48977e-011 1.93091e-027   
     length 5.13658   
     axis 180 -30 -90   XYZ
    dof rx ry rz
    limits (-60.0 90.0)
           (-90.0 90.0)
           (-90.0 90.0)
  end
  begin
     id 19
     name lradius
     direction 1 -4.48916e-011 6.84018e-027   
     length 3.22473   
     axis 180 -30 -90   XYZ
    dof rx
    limits (-10.0 170.0)
  end
  begin
     id 20
     name lwrist
     direction 1 -4.48987e-011 7.01981e-027   
     length 1.61236   
     axis -4.37994e-015 90 90   XYZ
    dof ry
    limits (-180.0 0.0)
 end
  begin
     id 21 
     name lhand
     direction 1 -4.49037e-011 1.40335e-026   
     length 0.936406   
     axis -8.96029e-015 90 90   XYZ
    dof rx rz
    limits (-90.0 90.0)
           (-45.0 45.0)
  end
  begin
     id 22 
     name lfingers
     direction 1 -4.48886e-011 2.8104e-026   
     length 0.754955   
     axis -1.79203e-014 90 90   XYZ
    dof rx
    limits (0.0 90.0)
  end
  begin
     id 23
     name lthumb
     direction 0.707107 -6.34937e-011 0.707107   
     length 1.08397   
     axis -90 45 -4.48555e-014   XYZ
    dof rx rz
    limits (-45.0 45.0)
           (-45.0 45.0)
  end
  begin
     id 24 
     name rclavicle
     direction -0.947962 0.317997 0.0156638   
     length 4.86918  
     axis 0 -0 0   XYZ 
    dof ry rz
    limits (-10.0 20.0)
           (-20.0 0.0)
  end
  begin
     id 25 
     name rhumerus
     direction -1 -4.48951e-011 2.80534e-018  
     length 5.60911   
     axis 180 30 90   XYZ
    dof rx ry rz
    limits (-90.0 60.0)
           (-90.0 90.0)
           (-90.0 90.0)
  end
  begin
     id 26 
     name rradius
     direction -1 -4.4898e-011 2.11315e-027   
     length 3.38704   
     axis 180 30 90   XYZ
    dof rx
    limits (-10.0 170.0)
  end
  begin
     id 27 
     name rwrist
     direction -1 -4.48933e-011 7.02314e-027   
     length 1.69352   
     axis -4.37994e-015 -90 -90   XYZ
    dof ry
    limits (-180.0 0.0)
  end
  begin
     id 28
     name rhand
     direction -1 -4.48937e-011 1.40458e-026   
     length 0.755878   
     axis -8.96029e-015 -90 -90   XYZ
    dof rx rz
    limits (-90.0 90.0)
           (-45.0 45.0)
  end
  begin
     id 29
     name rfingers
     direction -1 -4.4901e-011 2.80737e-026   
     length 0.609409   
     axis -1.79203e-014 -90 -90   XYZ
    dof rx
    limits (0.0 90.0)
  end
  begin
     id 30
     name rthumb
     direction -0.707107 -6.34968e-011 0.707107   
     length 0.874992   
     axis -90 -45 4.48555e-014   XYZ
    dof rx rz
    limits (-45.0 45.0)
           (-45.0 45.0)
  end
:hierarchy
  begin
    root lhipjoint rhipjoint lowerback
    lhipjoint lfemur
    lfemur ltibia
    ltibia lfoot
    lfoot ltoes
    rhipjoint rfemur
    rfemur rtibia
    rtibia rfoot
    rfoot rtoes
    lowerback upperback
    upperback thorax
    thorax lowerneck lclavicle rclavicle
    lowerneck upperneck
    upperneck head
    lclavicle lhumerus
    lhumerus lradius
    lradius lwrist
    lwrist lhand lthumb
    lhand lfingers
    rclavicle rhumerus
    rhumerus rradius
    rradius rwrist
    rwrist rhand rthumb
    rhand rfingers
  end

#!OML:ASF C:\ViconDB\ViconDB\414\Spring2016\041811\Spring2016.ASF
:FULLY-SPECIFIED
:DEGREES
62
root 7.14743 18.2658 18.8123 -167.381 -1.92587 181.794
lowerback 4.0888 4.61748 -0.325114
upperback 1.57241 6.083 1.13943
thorax -0.824578 3.00722 1.05443
lowerneck -13.3981 -7.56799 -15.3076
upperneck 7.21623 -9.72952 17.9058
head 6.08188 -4.21862 7.31865
rclavicle -2.74323e-014 2.74323e-014
rhumerus -30.3638 27.159 -67.4838
rradius 128.726
rwrist -1.68905
rhand -29.854 -10.1111
rfingers 7.12502
rthumb -3.17646 -40.0672
lclavicle -2.74323e-014 2.74323e-014
lhumerus -92.1458 -25.5774 95.5568
lradius 75.1485
lwrist -0.489704
lhand -38.0599 20.6773
lfingers 7.12502
lthumb -11.097 50.3639
rfemur 9.54619 -5.37767 23.091
rtibia 33.614
rfoot -134.533 -15.2533
rtoes -30.0694
lfemur -48.2329 6.35457 -22.943
ltibia 57.7028
lfoot -12.7674 -11.3625
ltoes -11.1533
63
root 7.166 18.2786 18.4453 -167.643 -2.43353 181.804
lowerback 4.00715 4.4071 -0.295394
upperback 1.57858 5.80587 0.959949
thorax -0.745195 2.87083 0.877225
lowerneck -13.3838 -7.52606 -15.435
upperneck 7.35489 -9.69792 18.0744
head 6.13364 -4.19887 7.40492
rclavicle 9.74045e-015 7.55382e-015
rhumerus -32.4722 26.7781 -69.6141
rradius 127.028
rwrist -0.766467
rhand -29.6304 -9.85082
rfingers 7.12502
rthumb -2.96051 -39.81
lclavicle 9.74045e-015 7.55382e-015
lhumerus -89.9922 -24.9369 95.0186
lradius 75.3
lwrist -0.167179
lhand -38.6363 21.0562
lfingers 7.12502
lthumb -11.6529 50.7122
rfemur 8.37135 -5.23555 23.3937
rtibia 37.0443
rfoot -135.229 -16.5751
rtoes -29.3203
lfemur -46.4234 6.6326 -23.0568
ltibia 56.2692
lfoot -10.8765 -11.0069
ltoes -10.4029
64
root 7.18972 18.253 18.0766 -168.198 -2.65388 181.658
lowerback 4.04601 4.2602 -0.55134
upperback 1.74124 5.59466 0.7576
thorax -0.60022 2.763 0.827267
lowerneck -13.5805 -7.52318 -15.4688
upperneck 7.72769 -9.72149 18.1243
head 6.29131 -4.19481 7.42593
rclavicle 1.19271e-015 -1.98785e-015
rhumerus -34.5469 26.2271 -71.8334
rradius 125.052
rwrist -0.140216
rhand -29.6443 -9.8362
rfingers 7.12502
rthumb -2.97392 -39.7952
lclavicle 1.19271e-015 -1.98785e-015
lhumerus -87.5952 -24.2653 94.4657
lradius 75.2817
lwrist -0.38654
lhand -38.8523 20.8501
lfingers 7.12502
lthumb -11.8612 50.4942
rfemur 7.23 -5.07401 23.4055
rtibia 40.961
rfoot -136.429 -17.6345
rtoes -28.5255
lfemur -43.9397 7.00243 -23.1589
ltibia 54.8924
lfoot -8.38422 -10.2902
ltoes -9.96372
65
root 7.20669 18.2168 17.7184 -168.505 -3.02456 181.437
lowerback 3.92422 4.03651 -0.675844
upperback 1.81059 5.29184 0.440148
thorax -0.436723 2.61233 0.600231
lowerneck -13.7206 -7.50052 -15.242
upperneck 8.17701 -9.76358 18.0094
head 6.443 -4.20267 7.34497
rclavicle 3.57812e-015 6.36111e-015
rhumerus -36.653 25.2735 -74.3177
rradius 122.732
rwrist 0.903428
rhand -29.569 -9.68014
rfingers 7.12502
rthumb -2.90119 -39.6402
lclavicle 3.57812e-015 6.36111e-015
lhumerus -85.1136 -23.6986 93.928
lradius 75.1431
lwrist -1.05073
lhand -38.6572 20.1649
lfingers 7.12502
lthumb -11.6731 49.8197
rfemur 5.45783 -5.43108 23.0916
rtibia 45.3585
rfoot -137.278 -18.1312
rtoes -27.9569
lfemur -41.7016 7.02394 -23.22
ltibia 53.6572
lfoot -6.38151 -10.5002
ltoes -8.0217
66
root 7.227 18.1714 17.3577 -169.018 -3.44462 181.387
lowerback 4.13688 3.80902 -0.714478
upperback 1.84401 4.98143 0.253418
thorax -0.502501 2.4564 0.431793
lowerneck -13.7013 -7.46122 -15.4163
upperneck 8.63971 -9.7986 18.2839
head 6.6157 -4.20831 7.4737
rclavicle 4.17448e-014 -1.11319e-014
rhumerus -38.7127 23.9686 -76.6491
rradius 120.157
rwrist 2.07199
rhand -28.9002 -9.36014
rfingers 7.12502
rthumb -2.25529 -39.328
lclavicle 4.17448e-014 -1.11319e-014
lhumerus -82.7122 -23.1451 93.6992
lradius 75.0353
lwrist -1.73057
lhand -38.5052 19.5565
lfingers 7.12502
lthumb -11.5266 49.2195
rfemur 3.66392 -5.90742 22.8648
rtibia 50.0484
rfoot -137.932 -18.0283
rtoes -27.0177
lfemur -39.1661 7.01293 -22.9418
ltibia 52.617
lfoot -9.34596 -10.5285
ltoes -8.88776
67
root 7.24634 18.1219 17.0106 -169.394 -3.5503 180.644
lowerback 4.50828 3.62019 -1.51366
upperback 1.77709 4.68671 -0.168598
thorax -0.8024 2.30793 0.429018
lowerneck -13.7202 -7.37052 -15.4485
upperneck 9.24667 -9.80908 18.517
head 6.82616 -4.19827 7.57035
rclavicle -4.97707e-014 2.48481e-015
rhumerus -40.8231 22.685 -78.9959
rradius 117.345
rwrist 3.44631
rhand -29.3213 -9.98281
rfingers 7.12502
rthumb -2.66197 -39.9459
lclavicle -4.97707e-014 2.48481e-015
lhumerus -80.4826 -22.6466 93.6025
lradius 74.9895
lwrist -2.59602
lhand -38.2371 18.6678
lfingers 7.12502
lthumb -11.268 48.3452
rfemur 1.40947 -6.46663 21.5881
rtibia 55.1145
rfoot -138.293 -17.3262
rtoes -26.2655
lfemur -36.611 6.7293 -23.3195
ltibia 51.6187
lfoot -11.2804 -10.7453
ltoes -11.2299
68
root 7.24948 18.053 16.653 -169.551 -3.66496 179.866
lowerback 4.44456 3.40313 -2.22662
upperback 1.71364 4.36024 -0.600009
thorax -0.844956 2.14308 0.402758
lowerneck -13.5689 -7.23784 -15.4593
upperneck 9.70489 -9.75448 18.6721
head 6.94253 -4.17073 7.64662
rclavicle -3.56073e-014 1.57785e-014
rhumerus -42.629 21.006 -81.0728
rradius 114.272
rwrist 5.04511
rhand -28.6853 -9.72998
rfingers 7.12502
rthumb -2.04779 -39.6999
lclavicle -3.56073e-014 1.57785e-014
lhumerus -78.1136 -22.159 93.5988
lradius 74.7338
lwrist -3.91521
lhand -37.9572 17.9159
lfingers 7.12502
lthumb -10.998 47.6078
rfemur -1.21963 -7.22679 20.0338
rtibia 60.3038
rfoot -138.417 -16.5508
rtoes -25.5485
lfemur -34.2201 6.35249 -23.9037
ltibia 50.771
lfoot -13.2686 -11.495
ltoes -11.6721
69
root 7.25034 17.9589 16.3124 -169.569 -3.75532 179.215
lowerback 4.31009 3.12139 -2.82377
upperback 1.62268 3.95288 -0.986672
thorax -0.866376 1.93728 0.365848
lowerneck -13.4767 -7.07006 -15.4602
upperneck 10.1426 -9.65217 18.8556
head 7.05523 -4.11741 7.73743
rclavicle -4.65405e-014 3.93594e-014
rhumerus -44.1531 19.2372 -83.0293
rradius 110.902
rwrist 6.75283
rhand -28.924 -9.84493
rfingers 7.12502
rthumb -2.27835 -39.8125
lclavicle -4.65405e-014 3.93594e-014
lhumerus -75.6522 -21.5764 93.6863
lradius 74.5393
lwrist -5.11557
lhand -37.7625 17.0961
lfingers 7.12502
lthumb -10.8102 46.7979
rfemur -4.27437 -7.93647 18.6045
rtibia 65.6924
rfoot -138.49 -15.5934
rtoes -24.8377
lfemur -32.1932 6.03221 -24.4907
ltibia 49.9327
lfoot -15.2858 -11.6087
ltoes -12.9212
70
root 7.24183 17.8798 15.9725 -169.488 -3.95718 178.71
lowerback 4.11413 2.80022 -3.17492
upperback 1.5527 3.50717 -1.30411
thorax -0.817662 1.71158 0.268499
lowerneck -13.4085 -6.8926 -15.3883
upperneck 10.5 -9.50984 18.918
head 7.1282 -4.04743 7.77627
rclavicle -8.74653e-015 1.33186e-014
rhumerus -45.4062 17.179 -84.6244
rradius 107.257
rwrist 8.51525
rhand -28.9146 -9.67557
rfingers 7.12502
rthumb -2.26925 -39.6432
lclavicle -8.74653e-015 1.33186e-014
lhumerus -73.0463 -21.0218 93.9861
lradius 74.4115
lwrist -6.19004
lhand -37.8623 16.1878
lfingers 7.12502
lthumb -10.9065 45.8846
rfemur -7.63019 -8.86367 17.2662
rtibia 70.9949
rfoot -138.555 -14.7569
rtoes -24.4965
lfemur -30.631 5.5567 -24.909
ltibia 49.3624
lfoot -16.6709 -11.6199
ltoes -13.4638
71
root 7.23676 17.7869 15.6546 -169.569 -4.30831 177.694
lowerback 4.4138 2.37494 -3.92769
upperback 1.53014 2.85941 -1.7968
thorax -1.00133 1.37763 0.202667
lowerneck -13.4965 -6.72099 -15.2954
upperneck 10.8549 -9.39083 19.1049
head 7.23947 -3.97592 7.85067
rclavicle -7.45443e-016 -1.55052e-014
rhumerus -46.5525 15.0626 -86.2208
rradius 103.558
rwrist 9.99139
rhand -29.36 -9.64241
rfingers 7.12502
rthumb -2.69942 -39.6051
lclavicle -7.45443e-016 -1.55052e-014
lhumerus -70.2211 -20.5392 94.2068
lradius 74.2338
lwrist -7.25378
lhand -37.8455 15.5658
lfingers 7.12502
lthumb -10.8902 45.2634
rfemur -10.9796 -10.0692 15.3473
rtibia 76.2895
rfoot -138.761 -14.015
rtoes -24.1791
lfemur -28.9735 4.88848 -25.8778
ltibia 49.0021
lfoot -17.9165 -11.5107
ltoes -13.3041
72
root 7.23461 17.694 15.3548 -169.775 -4.76341 176.854
lowerback 4.91099 2.01185 -4.46314
upperback 1.65488 2.28324 -2.19425
thorax -1.13681 1.07435 0.110655
lowerneck -13.5803 -6.65878 -15.5001
upperneck 10.869 -9.3919 19.6858
head 7.305 -3.95793 8.09618
rclavicle 9.93923e-017 3.65764e-014
rhumerus -47.3801 12.6328 -87.349
rradius 99.5735
rwrist 11.3881
rhand -30.4462 -10.0568
rfingers 7.12502
rthumb -3.74838 -40.0035
lclavicle 9.93923e-017 3.65764e-014
lhumerus -66.9014 -20.2898 94.5589
lradius 73.9694
lwrist -8.45148
lhand -37.9883 15.3047
lfingers 7.12502
lthumb -11.0279 44.995
rfemur -14.292 -11.3606 13.5805
rtibia 81.3768
rfoot -139.145 -12.9256
rtoes -24.1707
lfemur -27.4661 4.37708 -26.6679
ltibia 48.9873
lfoot -19.0542 -11.3223
ltoes -13.6483
73
root 7.25032 17.609 15.0628 -169.97 -5.43004 176.097
lowerback 5.5433 1.63628 -5.02066
upperback 1.73619 1.66838 -2.55327
thorax -1.3903 0.753645 0.074727
lowerneck -13.5871 -6.60222 -15.7296
upperneck 10.9403 -9.45032 20.381
head 7.39486 -3.9696 8.38512
rclavicle -3.08116e-015 -1.55052e-014
rhumerus -48.3696 10.0149 -88.3051
rradius 95.3313
rwrist 12.9789
rhand -31.7758 -10.2015
rfingers 7.12502
rthumb -5.0323 -40.1217
lclavicle -3.08116e-015 -1.55052e-014
lhumerus -63.5022 -20.4964 95.024
lradius 73.766
lwrist -9.41941
lhand -37.9509 15.306
lfingers 7.12502
lthumb -10.9919 44.9982
rfemur -17.645 -12.7972 12.1712
rtibia 86.1543
rfoot -140.076 -12.0432
rtoes -23.4165
lfemur -26.1175 3.9017 -27.2963
ltibia 49.151
lfoot -20.0767 -11.1606
ltoes -14.2518
